<svg xmlns="http://www.w3.org/2000/svg" width="40" height="40">
    <defs>
        <linearGradient id="a" x1="54.644%" x2="5.464%" y1="7.031%" y2="56.25%">
            <stop offset="0%" stop-color="#0096FF"/>
            <stop offset="100%" stop-color="#FF1E56"/>
        </linearGradient>
    </defs>
    <g fill="none" fill-rule="evenodd">
        <path fill="#FFF" fill-rule="nonzero" d="M20 9.333C14.118 9.333 9.333 14.118 9.333 20S14.118 30.667 20 30.667 30.667 25.882 30.667 20 25.882 9.333 20 9.333Zm0 16.187a5.52 5.52 0 1 1 0-11.04 5.52 5.52 0 1 1 0 11.04Z"/>
        <path fill="url(#a)" d="M16.859 3.885V0C25.297.451 32 7.443 32 16s-6.703 15.547-15.141 16v-3.885c6.289-.45 11.269-5.709 11.269-12.115 0-6.406-4.98-11.665-11.27-12.115ZM6.817 23.945a12.104 12.104 0 0 1-2.933-7.073H0a15.962 15.962 0 0 0 4.068 9.822l2.748-2.75h.001Zm8.3 8.055v-3.885a12.073 12.073 0 0 1-7.07-2.936L5.3 27.93A15.935 15.935 0 0 0 15.114 32h.002Z" transform="translate(4 4)"/>
    </g>
</svg>
