<svg xmlns="http://www.w3.org/2000/svg" width="16" height="16">
    <defs>
        <linearGradient id="a" x1="54.644%" x2="5.464%" y1="7.031%" y2="56.25%">
            <stop offset="0%" stop-color="#0096FF"/>
            <stop offset="100%" stop-color="#FF1E56"/>
        </linearGradient>
    </defs>
    <g fill="none" fill-rule="evenodd">
        <path fill="#FFF" fill-rule="nonzero" d="M8.4 4.133A4.272 4.272 0 0 0 4.133 8.4 4.272 4.272 0 0 0 8.4 12.667 4.272 4.272 0 0 0 12.667 8.4 4.272 4.272 0 0 0 8.4 4.133Zm0 6.475a2.208 2.208 0 1 1 0-4.416 2.208 2.208 0 0 1 0 4.416Z"/>
        <path fill="url(#a)" d="M6.743 1.554V0A6.407 6.407 0 0 1 12.8 6.4a6.408 6.408 0 0 1-6.057 6.4v-1.554A4.864 4.864 0 0 0 11.251 6.4a4.864 4.864 0 0 0-4.508-4.846ZM2.727 9.578a4.842 4.842 0 0 1-1.173-2.83H0a6.385 6.385 0 0 0 1.627 3.93l1.1-1.1Zm3.32 3.222v-1.554a4.83 4.83 0 0 1-2.828-1.174l-1.1 1.1A6.374 6.374 0 0 0 6.047 12.8Z" transform="translate(2 2)"/>
    </g>
</svg>
