<svg xmlns="http://www.w3.org/2000/svg" width="16" height="16">
    <defs>
        <linearGradient id="a" x1="54.644%" x2="5.464%" y1="7.099%" y2="56.24%">
            <stop offset="0%" stop-color="#0096FF"/>
            <stop offset="100%" stop-color="#FF1E56"/>
        </linearGradient>
    </defs>
    <g fill="none" fill-rule="evenodd">
        <path fill="#000" fill-rule="nonzero" d="M8.395 4.236a4.164 4.164 0 0 0-4.16 4.159 4.164 4.164 0 0 0 4.16 4.159 4.164 4.164 0 0 0 4.159-4.159 4.164 4.164 0 0 0-4.16-4.159Zm0 6.311a2.152 2.152 0 1 1 0-4.304 2.152 2.152 0 0 1 0 4.304Z"/>
        <path fill="url(#a)" d="M6.743 1.553V0a6.405 6.405 0 0 1 0 12.79v-1.553a4.861 4.861 0 0 0 4.508-4.842 4.861 4.861 0 0 0-4.508-4.842ZM2.727 9.57a4.836 4.836 0 0 1-1.173-2.827H0a6.377 6.377 0 0 0 1.627 3.926l1.1-1.099Zm3.32 3.22v-1.553a4.831 4.831 0 0 1-2.828-1.173l-1.1 1.099a6.377 6.377 0 0 0 3.927 1.627Z" transform="translate(2 2)"/>
    </g>
</svg>
